# xmcd CD database file
#
# Track frame offsets:
#	150
#	11277
#	24087
#	39665
#	52337
#	65415
#	79277
#	91852
#	109505
#	123127
#	137445
#	149917
#	163405
#	173365
#	183767
#	194645
#	203252
#	219285
#	232887
#	243512
#	256630
#	270305
#
# Disc length: 3760 seconds
#
# Revision: 1
# Processed by: cddbd v1.5.2PL0 Copyright (c) Steve Scherf et al.
# Submitted via: jetAudio 7
#
DISCID=1d0eae16
DTITLE=The Statler Brothers - Bed of Rose's and Pictures of Moments to Re
DTITLE=member
DYEAR=2012
DGENRE=Country
TTITLE0=Bed Of Rose's
TTITLE1=New York City
TTITLE2=All I Have To Offer You Is Me
TTITLE3=Neighborhood Girl
TTITLE4=Fifteen Years Ago
TTITLE5=The Junkie's Prayer
TTITLE6=We
TTITLE7=This Part Of The World
TTITLE8=Tomorrow Never Comes
TTITLE9=Me And Bobby McGee
TTITLE10=The Last Goodbye
TTITLE11=Pictures
TTITLE12=Moments To Remember
TTITLE13=Second Thoughts
TTITLE14=Just Someone I Used To Know
TTITLE15=I Wonder How The Old Folks Are At Home
TTITLE16=Things
TTITLE17=You Can't Go Home
TTITLE18=Tender Years
TTITLE19=Making Memories
TTITLE20=Faded Love
TTITLE21=When You And I Were Young, Maggie
EXTD=
EXTT0=
EXTT1=
EXTT2=
EXTT3=
EXTT4=
EXTT5=
EXTT6=
EXTT7=
EXTT8=
EXTT9=
EXTT10=
EXTT11=
EXTT12=
EXTT13=
EXTT14=
EXTT15=
EXTT16=
EXTT17=
EXTT18=
EXTT19=
EXTT20=
EXTT21=
PLAYORDER=
